<svg width="41" height="36" viewBox="0 0 41 36" fill="none" xmlns="http://www.w3.org/2000/svg">
<path d="M20.0342 11.1221L25.8587 16.9467L25.8865 16.6416C25.8865 13.5813 23.3995 11.0944 20.3393 11.0944L20.0342 11.1221Z" fill="white"/>
<path d="M20.3391 7.39632C25.4425 7.39632 29.5845 11.5383 29.5845 16.6417C29.5845 17.8343 29.3441 18.9715 28.9281 20.0162L34.3366 25.4247C37.1287 23.0949 39.3291 20.0809 40.6882 16.6417C37.4801 8.52431 29.5938 2.77368 20.3392 2.77368C17.7505 2.77368 15.2728 3.23592 12.9707 4.068L16.9647 8.05271C18.0093 7.64594 19.1465 7.39632 20.3391 7.39632Z" fill="white"/>
<path d="M1.84904 2.35756L6.06491 6.57343L6.90626 7.41478C3.8553 9.80008 1.44227 12.9713 0 16.6416C3.19891 24.759 11.0944 30.5096 20.3398 30.5096C23.2058 30.5096 25.9424 29.9549 28.4479 28.9471L29.2338 29.733L34.6239 35.1322L36.9814 32.7839L4.2066 0L1.84904 2.35756ZM12.0744 12.5737L14.9312 15.4305C14.848 15.8281 14.7926 16.2256 14.7926 16.6416C14.7926 19.7018 17.2795 22.1888 20.3398 22.1888C20.7558 22.1888 21.1534 22.1333 21.5417 22.0501L24.3985 24.9069C23.1688 25.5171 21.8006 25.887 20.3398 25.887C15.2363 25.887 11.0944 21.745 11.0944 16.6416C11.0944 15.1809 11.4642 13.8125 12.0744 12.5737Z" fill="white"/>
</svg>
